<svg viewBox="0 0 820 190" xmlns="http://www.w3.org/2000/svg" font-family="Pretendard, -apple-system, BlinkMacSystemFont, 'Segoe UI', Inter, sans-serif">
  <defs>
    <linearGradient id="accent-example" x1="0" y1="0" x2="1" y2="0">
      <stop offset="0%" stop-color="#79c0ff"/>
      <stop offset="100%" stop-color="#d2a8ff"/>
    </linearGradient>
    <linearGradient id="border-example" x1="0" y1="0" x2="1" y2="1">
      <stop offset="0%" stop-color="#30363d"/>
      <stop offset="50%" stop-color="#58a6ff" stop-opacity="0.45"/>
      <stop offset="100%" stop-color="#30363d"/>
    </linearGradient>
    <filter id="shadow-example" x="-20%" y="-20%" width="140%" height="140%">
      <feDropShadow dx="0" dy="6" stdDeviation="10" flood-color="#000000" flood-opacity="0.32"/>
    </filter>
  </defs>

  <g filter="url(#shadow-example)">
    <rect x="10" y="8" width="800" height="174" rx="12" fill="#0d1117" stroke="url(#border-example)"/>
  </g>

  <text x="44" y="46" font-size="20" font-weight="700" fill="#e6edf3">프로젝트명을 입력하세요</text>
  <text x="776" y="45" text-anchor="end" font-size="12" fill="#8b949e">2026.01 – 2026.03</text>

  <text x="44" y="68" font-size="12" font-weight="600" letter-spacing="1" fill="#79c0ff">백엔드 · 담당 영역을 적으세요</text>

  <text font-size="13" fill="#c9d1d9"><tspan x="44" y="92">이 프로젝트가 어떤 문제를 어떻게 해결했는지 한 줄로 요약하세요</tspan></text>

  <rect x="44" y="112" height="2" rx="1" fill="url(#accent-example)" width="0">
    <animate attributeName="width" begin="0.2s" dur="0.5s" values="0;732" fill="freeze"/>
  </rect>

    <g transform="translate(44,136) scale(0.8333)"><path d="M11.915 0 11.7.215C9.515 2.4 7.47 6.39 6.046 10.483c-1.064 1.024-3.633 2.81-3.711 3.551-.093.87 1.746 2.611 1.55 3.235-.198.625-1.304 1.408-1.014 1.939.1.188.823.011 1.277-.491a13.389 13.389 0 0 0-.017 2.14c.076.906.27 1.668.643 2.232.372.563.956.911 1.667.911.397 0 .727-.114 1.024-.264.298-.149.571-.33.91-.5.68-.34 1.634-.666 3.53-.604 1.903.062 2.872.39 3.559.704.687.314 1.15.664 1.925.664.767 0 1.395-.336 1.807-.9.412-.563.631-1.33.72-2.24.06-.623.055-1.32 0-2.066.454.45 1.117.604 1.213.424.29-.53-.816-1.314-1.013-1.937-.198-.624 1.642-2.366 1.549-3.236-.08-.748-2.707-2.568-3.748-3.586C16.428 6.374 14.308 2.394 12.13.215zm.175 6.038a2.95 2.95 0 0 1 2.943 2.942 2.95 2.95 0 0 1-2.943 2.943A2.95 2.95 0 0 1 9.148 8.98a2.95 2.95 0 0 1 2.942-2.942zM8.685 7.983a3.515 3.515 0 0 0-.145.997c0 1.951 1.6 3.55 3.55 3.55 1.95 0 3.55-1.598 3.55-3.55 0-.329-.046-.648-.132-.951.334.095.64.208.915.336a42.699 42.699 0 0 1 2.042 5.829c.678 2.545 1.01 4.92.846 6.607-.082.844-.29 1.51-.606 1.94-.315.431-.713.651-1.315.651-.593 0-.932-.27-1.673-.61-.741-.338-1.825-.694-3.792-.758-1.974-.064-3.073.293-3.821.669-.375.188-.659.373-.911.5s-.466.2-.752.2c-.53 0-.876-.209-1.16-.64-.285-.43-.474-1.101-.545-1.948-.141-1.693.176-4.069.823-6.614a43.155 43.155 0 0 1 1.934-5.783c.348-.167.749-.31 1.192-.425zm-3.382 4.362a.216.216 0 0 1 .13.031c-.166.56-.323 1.116-.463 1.665a33.849 33.849 0 0 0-.547 2.555 3.9 3.9 0 0 0-.2-.39c-.58-1.012-.914-1.642-1.16-2.08.315-.24 1.679-1.755 2.24-1.781zm13.394.01c.562.027 1.926 1.543 2.24 1.783-.246.438-.58 1.068-1.16 2.08a4.428 4.428 0 0 0-.163.309 32.354 32.354 0 0 0-.562-2.49 40.579 40.579 0 0 0-.482-1.652.216.216 0 0 1 .127-.03z" fill="#EC8B2F"/></g>
    <g transform="translate(74,136) scale(0.8333)"><path d="m23.693 10.7058-4.73-8.1844c-.4094-.7106-1.4166-1.2942-2.2402-1.2942H7.2725c-.819 0-1.8308.5836-2.2402 1.2942L.307 10.7058c-.4095.7106-.4095 1.873 0 2.5837l4.7252 8.189c.4094.7107 1.4166 1.2943 2.2402 1.2943h9.455c.819 0 1.826-.5836 2.2402-1.2942l4.7252-8.189c.4095-.7107.4095-1.8732 0-2.5838zM10.9763 5.7547c0-.5365.4377-.9742.9742-.9742s.9742.4377.9742.9742v5.8217c0 .5366-.4377.9742-.9742.9742s-.9742-.4376-.9742-.9742zm.9742 12.4294c-3.6427 0-6.6077-2.965-6.6077-6.6077.0047-2.0896.993-4.0521 2.6685-5.304a.8657.8657 0 0 1 1.2142.1788.8657.8657 0 0 1-.1788 1.2143c-2.1602 1.6048-2.612 4.6592-1.0072 6.8194 1.6049 2.1603 4.6593 2.612 6.8195 1.0072 1.2378-.9177 1.9673-2.372 1.9673-3.9157a4.8972 4.8972 0 0 0-1.9861-3.925c-.386-.2824-.466-.8284-.1836-1.2143.2824-.386.8283-.466 1.2143-.1835 1.6895 1.2471 2.6826 3.2238 2.6873 5.3228 0 3.6474-2.965 6.6077-6.6077 6.6077z" fill="#6DB33F"/></g>
    <g transform="translate(104,136) scale(0.8333)"><path d="M16.405 5.501c-.115 0-.193.014-.274.033v.013h.014c.054.104.146.18.214.273.054.107.1.214.154.32l.014-.015c.094-.066.14-.172.14-.333-.04-.047-.046-.094-.08-.14-.04-.067-.126-.1-.18-.153zM5.77 18.695h-.927a50.854 50.854 0 00-.27-4.41h-.008l-1.41 4.41H2.45l-1.4-4.41h-.01a72.892 72.892 0 00-.195 4.41H0c.055-1.966.192-3.81.41-5.53h1.15l1.335 4.064h.008l1.347-4.064h1.095c.242 2.015.384 3.86.428 5.53zm4.017-4.08c-.378 2.045-.876 3.533-1.492 4.46-.482.716-1.01 1.073-1.583 1.073-.153 0-.34-.046-.566-.138v-.494c.11.017.24.026.386.026.268 0 .483-.075.647-.222.197-.18.295-.382.295-.605 0-.155-.077-.47-.23-.944L6.23 14.615h.91l.727 2.36c.164.536.233.91.205 1.123.4-1.064.678-2.227.835-3.483zm12.325 4.08h-2.63v-5.53h.885v4.85h1.745zm-3.32.135l-1.016-.5c.09-.076.177-.158.255-.25.433-.506.648-1.258.648-2.253 0-1.83-.718-2.746-2.155-2.746-.704 0-1.254.232-1.65.697-.43.508-.646 1.256-.646 2.245 0 .972.19 1.686.574 2.14.35.41.877.615 1.583.615.264 0 .506-.033.725-.098l1.325.772.36-.622zM15.5 17.588c-.225-.36-.337-.94-.337-1.736 0-1.393.424-2.09 1.27-2.09.443 0 .77.167.977.5.224.362.336.936.336 1.723 0 1.404-.424 2.108-1.27 2.108-.445 0-.77-.167-.978-.5zm-1.658-.425c0 .47-.172.856-.516 1.156-.344.3-.803.45-1.384.45-.543 0-1.064-.172-1.573-.515l.237-.476c.438.22.833.328 1.19.328.332 0 .593-.073.783-.22a.754.754 0 00.3-.615c0-.33-.23-.61-.648-.845-.388-.213-1.163-.657-1.163-.657-.422-.307-.632-.636-.632-1.177 0-.45.157-.81.47-1.085.315-.278.72-.415 1.22-.415.512 0 .98.136 1.4.41l-.213.476a2.726 2.726 0 00-1.064-.23c-.283 0-.502.068-.654.206a.685.685 0 00-.248.524c0 .328.234.61.666.85.393.215 1.187.67 1.187.67.433.305.648.63.648 1.168zm9.382-5.852c-.535-.014-.95.04-1.297.188-.1.04-.26.04-.274.167.055.053.063.14.11.214.08.134.218.313.346.407.14.11.28.216.427.31.26.16.555.255.81.416.145.094.293.213.44.313.073.05.12.14.214.172v-.02c-.046-.06-.06-.147-.105-.214-.067-.067-.134-.127-.2-.193a3.223 3.223 0 00-.695-.675c-.214-.146-.682-.35-.77-.595l-.013-.014c.146-.013.32-.066.46-.106.227-.06.435-.047.67-.106.106-.027.213-.06.32-.094v-.06c-.12-.12-.21-.283-.334-.395a8.867 8.867 0 00-1.104-.823c-.21-.134-.476-.22-.697-.334-.08-.04-.214-.06-.26-.127-.12-.146-.19-.34-.275-.514a17.69 17.69 0 01-.547-1.163c-.12-.262-.193-.523-.34-.763-.69-1.137-1.437-1.826-2.586-2.5-.247-.14-.543-.2-.856-.274-.167-.008-.334-.02-.5-.027-.11-.047-.216-.174-.31-.235-.38-.24-1.364-.76-1.644-.072-.18.434.267.862.422 1.082.115.153.26.328.34.5.047.116.06.235.107.356.106.294.207.622.347.897.073.14.153.287.247.413.054.073.146.107.167.227-.094.136-.1.334-.154.5-.24.757-.146 1.693.194 2.25.107.166.362.534.703.393.3-.12.234-.5.32-.835.02-.08.007-.133.048-.187v.015c.094.188.188.367.274.555.206.328.566.668.867.895.16.12.287.328.487.402v-.02h-.015c-.043-.058-.1-.086-.154-.133a3.445 3.445 0 01-.35-.4 8.76 8.76 0 01-.747-1.218c-.11-.21-.202-.436-.29-.643-.04-.08-.04-.2-.107-.24-.1.146-.247.273-.32.453-.127.288-.14.642-.188 1.01-.027.007-.014 0-.027.014-.214-.052-.287-.274-.367-.46-.2-.475-.233-1.238-.06-1.785.047-.14.247-.582.167-.716-.042-.127-.174-.2-.247-.303a2.478 2.478 0 01-.24-.427c-.16-.374-.24-.788-.414-1.162-.08-.173-.22-.354-.334-.513-.127-.18-.267-.307-.368-.52-.033-.073-.08-.194-.027-.274.014-.054.042-.075.094-.09.088-.072.335.022.422.062.247.1.455.194.662.334.094.066.195.193.315.226h.14c.214.047.455.014.655.073.355.114.675.28.962.46a5.953 5.953 0 012.085 2.286c.08.154.115.295.188.455.14.33.313.663.455.982.14.315.275.636.476.897.1.14.502.213.682.286.133.06.34.115.46.188.23.14.454.3.67.454.11.076.443.243.463.378z" fill="#6cb6ff"/></g>
    <g transform="translate(134,136) scale(0.8333)"><path d="M13.983 11.078h2.119a.186.186 0 00.186-.185V9.006a.186.186 0 00-.186-.186h-2.119a.185.185 0 00-.185.185v1.888c0 .102.083.185.185.185m-2.954-5.43h2.118a.186.186 0 00.186-.186V3.574a.186.186 0 00-.186-.185h-2.118a.185.185 0 00-.185.185v1.888c0 .102.082.185.185.185m0 2.716h2.118a.187.187 0 00.186-.186V6.29a.186.186 0 00-.186-.185h-2.118a.185.185 0 00-.185.185v1.887c0 .102.082.185.185.186m-2.93 0h2.12a.186.186 0 00.184-.186V6.29a.185.185 0 00-.185-.185H8.1a.185.185 0 00-.185.185v1.887c0 .102.083.185.185.186m-2.964 0h2.119a.186.186 0 00.185-.186V6.29a.185.185 0 00-.185-.185H5.136a.186.186 0 00-.186.185v1.887c0 .102.084.185.186.186m5.893 2.715h2.118a.186.186 0 00.186-.185V9.006a.186.186 0 00-.186-.186h-2.118a.185.185 0 00-.185.185v1.888c0 .102.082.185.185.185m-2.93 0h2.12a.185.185 0 00.184-.185V9.006a.185.185 0 00-.184-.186h-2.12a.185.185 0 00-.184.185v1.888c0 .102.083.185.185.185m-2.964 0h2.119a.185.185 0 00.185-.185V9.006a.185.185 0 00-.184-.186h-2.12a.186.186 0 00-.186.186v1.887c0 .102.084.185.186.185m-2.92 0h2.12a.185.185 0 00.184-.185V9.006a.185.185 0 00-.184-.186h-2.12a.185.185 0 00-.184.185v1.888c0 .102.082.185.185.185M23.763 9.89c-.065-.051-.672-.51-1.954-.51-.338.001-.676.03-1.01.087-.248-1.7-1.653-2.53-1.716-2.566l-.344-.199-.226.327c-.284.438-.49.922-.612 1.43-.23.97-.09 1.882.403 2.661-.595.332-1.55.413-1.744.42H.751a.751.751 0 00-.75.748 11.376 11.376 0 00.692 4.062c.545 1.428 1.355 2.48 2.41 3.124 1.18.723 3.1 1.137 5.275 1.137.983.003 1.963-.086 2.93-.266a12.248 12.248 0 003.823-1.389c.98-.567 1.86-1.288 2.61-2.136 1.252-1.418 1.998-2.997 2.553-4.4h.221c1.372 0 2.215-.549 2.68-1.009.309-.293.55-.65.707-1.046l.098-.288Z" fill="#2496ED"/></g>

  <text x="776" y="154" text-anchor="end" font-size="12" fill="#8b949e">자세히 보기 ↓</text>
</svg>
